<svg version="1" xmlns="http://www.w3.org/2000/svg" width="1854.667" height="1854.667" viewBox="0 0 1391.000000 1391.000000"><path d="M1381.5 410.9c-4.9 2.1-14.2 5.9-20.5 8.5-6.3 2.6-12.4 5.1-13.5 5.6-1.1.5-4.9 2.1-8.5 3.6-3.6 1.4-7.8 3.2-9.5 3.9-8.4 3.6-20.4 8.5-20.8 8.5-.2 0-2.6 1-5.3 2.2-2.7 1.2-5.1 2.3-5.4 2.3-.3.1-1.7.7-3.2 1.3-1.6.7-4 1.7-5.5 2.4-1.6.6-3 1.2-3.3 1.3-.3.1-1.8.7-3.5 1.4-5.8 2.4-25 10.3-28 11.6-1.6.7-5.7 2.3-9 3.6-3.3 1.3-6.1 2.7-6.3 3.1-.2.5-1 .8-1.7.8s-6 2-11.7 4.4c-5.6 2.4-15.5 6.4-21.8 9-6.3 2.6-12.4 5.1-13.5 5.6-5.4 2.4-17.1 7.2-18.1 7.4-.7.1-1.9.8-2.8 1.5-.9.7-1.6 1-1.6.6s-1.1 0-2.5.9-2.5 1.4-2.5 1.1c0-.4-1.7.3-3.7 1.3-2.1 1.1-5.8 2.8-8.3 3.7-2.5.9-5.6 2.2-7 2.8-1.4.6-2.7 1.1-3 1.2-.3.1-2.3.9-4.5 1.9-2.2 1-4.4 1.9-5 2-.5.1-1.5.4-2 .8-.6.4-7.1 3.1-14.5 6.1-17.5 7.1-20.9 8.5-24.5 10.2-1.6.7-5.5 2.3-8.5 3.5-3 1.1-6.8 2.7-8.5 3.4-1.6.8-10.9 4.6-20.5 8.6s-18.8 7.8-20.5 8.5c-1.6.7-5.3 2.2-8.2 3.4-2.8 1.1-6.4 2.6-8 3.3-1.5.6-3.1 1.2-3.5 1.2-.3.1-1 .4-1.4.8-.4.5-1.6.8-2.6.8s-1.8.4-1.8 1c0 .5-.7 1-1.5 1-.9 0-3.5.9-5.7 2-2.3 1.1-4.5 2-4.9 2-.3 0-3.2 1.1-6.3 2.5-3.1 1.4-5.8 2.5-6.1 2.5-.2.1-3.1 1.2-6.2 2.7-3.2 1.4-13 5.4-21.8 9-8.8 3.6-17.8 7.3-20 8.3-3.6 1.6-16.7 7-44 18.2-5.5 2.3-12.3 5.2-15.2 6.5-2.8 1.2-5.5 2.3-5.8 2.3-.4 0-2.3.7-4.3 1.6-5.8 2.5-7.3 3.1-14.2 5.9-3.6 1.4-7.8 3.2-9.5 3.9-4.8 2.2-7.2 3.2-23 9.7-8.2 3.3-16.3 6.7-18 7.4-1.6.7-5.5 2.3-8.5 3.5-3 1.2-7.4 3.1-9.7 4.1-2.3 1.1-4.4 1.9-4.7 1.9-.3 0-3 1.1-6 2.5s-5.7 2.5-6 2.5c-.5 0-15 6-23.1 9.5-1.6.7-4.1 1.8-5.5 2.4-1.4.6-6.3 2.6-11 4.5-4.7 1.8-11.9 4.8-16 6.5-4.1 1.8-8.4 3.6-9.5 4-1.1.5-4.4 1.9-7.4 3.2-3 1.3-5.7 2.4-6 2.5-.8.1-3.7 1.3-9.9 4-2.9 1.3-5.6 2.4-6.1 2.4-.4 0-2.1.6-3.7 1.4-2.7 1.3-12.7 5.5-30.4 12.8-4.1 1.7-8.8 3.6-10.5 4.3-3.4 1.5-18.7 7.8-44.5 18.4-9.6 4-19.4 8.1-21.7 9.2-2.4 1-4.5 1.9-4.9 1.9-.3 0-3.1 1.2-6.2 2.6-3.1 1.5-6.1 2.7-6.7 2.9-1.1.2-1.9.5-17.5 7.1-6.3 2.7-11.8 4.8-12.2 4.6-.5-.1-.8.2-.8.6 0 .5-.6.9-1.2.9-.7 0-3.3.9-5.8 2-2.5 1.2-16.2 6.9-30.5 12.8s-27.9 11.6-30.2 12.6c-2.3 1-4.5 1.9-4.9 1.9-.4 0-2.8 1-5.3 2.1-2.5 1.2-5.5 2.5-6.6 2.9-3.2 1.2-12.9 5.2-14.6 6-.8.4-4.7 2-8.5 3.5s-8.5 3.5-10.4 4.4c-1.9.9-3.7 1.6-4 1.7-.3 0-1.8.6-3.5 1.3-3.6 1.4-4.7 1.8-6 2.1-.5.1-1.4.5-2 1-1 .8-35.1 15-36 15-.5 0-2.5.9-13.7 5.9-2.6 1.1-5 2.1-5.2 2.1-.2 0-2.6 1-5.3 2.2-2.6 1.1-5.2 2.2-5.8 2.4-1 .2-19 7.6-23 9.4-1.6.7-18 7.6-36.5 15.3-1.4.5-2.9 1.1-3.5 1.2-.5.2-3 1.2-5.5 2.3-2.5 1.1-7.4 3.3-11 4.7-3.6 1.4-7.9 3.3-9.7 4.1-1.7.8-3.4 1.4-3.7 1.4-.3 0-3.1 1.2-6.3 2.6-3.2 1.4-6.7 2.9-7.8 3.3-1.1.5-3.3 1.4-5 2.1-1.6.7-6.8 2.8-11.5 4.7-4.7 1.9-9.8 4-11.5 4.8-9.3 4.1-30.5 12.6-31.5 12.7-.3 0-1.6.6-3 1.4-1.4.7-13.1 5.6-26 10.9-12.9 5.3-25.3 10.4-27.5 11.4-2.2 1-8.3 3.5-13.5 5.6-5.2 2-10.8 4.4-12.5 5.1-3.6 1.7-36.6 15.4-38 15.8-.5.2-2.1.8-3.5 1.4-1.4.6-6.8 2.9-12 5.1l-9.5 4 695.3.1H1391V695c0-158.4-.1-288-.2-288-.2 0-4.3 1.8-9.3 3.9z"/></svg>